<?xml version="1.0" encoding="UTF-8" standalone="no"?>
<!DOCTYPE svg PUBLIC "-//W3C//DTD SVG 1.1//EN" "http://www.w3.org/Graphics/SVG/1.1/DTD/svg11.dtd">
<svg width="100%" height="100%" viewBox="0 0 64 64" version="1.1" xmlns="http://www.w3.org/2000/svg" xmlns:xlink="http://www.w3.org/1999/xlink" xml:space="preserve" xmlns:serif="http://www.serif.com/" style="fill-rule:evenodd;clip-rule:evenodd;stroke-linejoin:round;stroke-miterlimit:2;">
    <g transform="matrix(4,0,0,4,0,0)">
        <path d="M8,15C7.726,15 7.5,14.774 7.5,14.5L7.5,1.5C7.5,1.226 7.726,1 8,1C8.274,1 8.5,1.226 8.5,1.5L8.5,14.5C8.5,14.774 8.274,15 8,15M0.146,8.354C0.052,8.26 -0.001,8.133 -0.001,8C-0.001,7.867 0.052,7.74 0.146,7.646L2.146,5.646C2.24,5.552 2.367,5.499 2.5,5.499C2.775,5.499 3.001,5.725 3.001,6C3.001,6.133 2.948,6.26 2.854,6.354L1.707,7.5L5.5,7.5C5.774,7.5 6,7.726 6,8C6,8.274 5.774,8.5 5.5,8.5L1.707,8.5L2.854,9.646C2.948,9.74 3.001,9.867 3.001,10C3.001,10.275 2.775,10.501 2.5,10.501C2.367,10.501 2.24,10.448 2.146,10.354L0.146,8.354ZM10,8C10,7.726 10.226,7.5 10.5,7.5L14.293,7.5L13.146,6.354C13.052,6.26 12.999,6.133 12.999,6C12.999,5.725 13.225,5.499 13.5,5.499C13.633,5.499 13.76,5.552 13.854,5.646L15.854,7.646C15.948,7.74 16.001,7.867 16.001,8C16.001,8.133 15.948,8.26 15.854,8.354L13.854,10.354C13.76,10.448 13.633,10.501 13.5,10.501C13.225,10.501 12.999,10.275 12.999,10C12.999,9.867 13.052,9.74 13.146,9.646L14.293,8.5L10.5,8.5C10.226,8.5 10,8.274 10,8" style="fill:white;fill-rule:nonzero;"/>
    </g>
</svg>
